<svg xmlns="http://www.w3.org/2000/svg" viewBox="0 0 314.652 314.652"><path d="M157.326 0C70.576 0 0 70.576 0 157.326s70.576 157.326 157.326 157.326 157.326-70.576 157.326-157.326S244.076 0 157.326 0zm0 296.652C80.502 296.652 18 234.15 18 157.326S80.502 18 157.326 18s139.326 62.502 139.326 139.326-62.502 139.326-139.326 139.326z"/><path d="M200.481 76.642c-34.44-26.361-81.819-22.517-105.614 8.57-18.037 23.565-17.872 57.435.411 84.281a9 9 0 0014.877-10.133c-13.904-20.417-14.305-45.818-.995-63.207 17.764-23.207 53.822-25.547 80.38-5.219 26.559 20.329 33.715 55.748 15.952 78.954-13.722 17.928-38.68 23.803-62.209 15.207l11.668-55.423c1.024-4.864-2.089-9.638-6.952-10.661a8.993 8.993 0 00-10.661 6.952l-24 114c-1.024 4.864 2.089 9.638 6.952 10.661a9.018 9.018 0 001.863.195c4.166 0 7.906-2.909 8.798-7.147l8.593-40.816c8.41 2.787 16.954 4.153 25.298 4.153 21.622 0 41.892-9.129 54.943-26.181 23.795-31.087 15.136-77.825-19.304-104.186z"/></svg>