<svg xmlns="http://www.w3.org/2000/svg" width="509.49" height="509.49"><path d="M255.51 236.487h113.22v59.882H255.51zm-30.6-100.973h-92.167l6.854 70.377h85.313zm0 160.855v-59.878h-82.332l5.832 59.878zm0-251.34H123.93l5.832 59.885h95.148zm174.42 251.34h61.199l11.666-59.878H399.33zM255.51 45.029h113.22v59.881H255.51zm0 90.485h113.22v70.377H255.51zm143.82-30.6h98.496l11.664-59.885H399.33zm0 100.977h78.826l13.709-70.377H399.33z"/><path d="M92.122 29.729H0V60.33h63.939l24.48 297.241h372.11v-30.599H116.602z"/><circle cx="136.935" cy="433.096" r="46.665"/><circle cx="404.686" cy="433.096" r="46.665"/></svg>