<svg version="1.0" xmlns="http://www.w3.org/2000/svg" width="410.667" height="218.667" viewBox="0 0 308 164"><path d="M71.2 10.7c-2.7 7.6-27.1 74-27.7 75.5-.6 1.6.1 1.8 8.1 1.8h8.9l8-22.1c4.4-12.1 8.1-21.6 8.3-21.1.2.6-.6 9.4-1.8 19.7-2.8 26.4-3.6 23.6 6.6 23.3l8.7-.3L104.6 48C112.5 26.3 119 8.4 119 8.2c0-.1-3.9-.1-8.7 0l-8.7.3-7 19.3c-3.8 10.5-7.1 19-7.3 18.8-.4-.4 1-21.2 2.2-33.9l.4-4.7h-8.8c-8.8 0-8.9 0-9.9 2.7zm51.7 0C120.5 16.9 95 87.2 95 87.6c0 .3 4.6.3 10.2.2l10.2-.3 13.9-38c7.7-20.9 14.1-38.8 14.4-39.8.5-1.5-.4-1.7-9.6-1.7-10.1 0-10.1 0-11.2 2.7zm19.8 16c-3.8 10.4-7.7 21-8.7 23.8-5.5 14.7-13 35.7-13 36.6 0 .6 3.8.9 9.7.7l9.7-.3 6.2-17c3.5-9.4 6.3-16.2 6.4-15.2 0 2-2.7 25.5-3.5 29.9l-.4 2.8h21.8l.5-4.3c.3-2.3.9-12.4 1.4-22.4l1-18.2 11.4-16.3c6.3-9 11.8-16.9 12.2-17.6.6-.9-1.5-1.2-8.9-1.2H179l-10 15.1c-5.5 8.3-10 14.7-10 14.3 0-.4 2.3-6.9 5-14.4 2.8-7.5 5-14 5-14.3 0-.4-4.4-.7-9.8-.7h-9.7l-6.8 18.7z"/><path d="M196.1 22.7c-2.9 8.2-6.8 18.8-8.6 23.8C175.3 79.7 173 86.2 173 87c0 .5 2.1 1 4.8 1.2 4.5.3-18.5 6.8-99.3 28.1-19.4 5.1-33.9 2.8-42.2-6.6-1.7-1.9-3.8-5.6-4.8-8.1-2.5-6.5-1.6-19.6 1.9-29.1l2.6-7-3.1 3.5c-5.3 6-16.5 22.1-21.1 30.5C2.3 116.4-1.4 130.3.9 140.4c2.5 11.2 12.3 19.3 26.6 22.3 11.5 2.3 23.1.3 40.3-7.1 11-4.7 47.4-20.3 155.2-66.8 14-6.1 34-14.6 44.3-19 10.3-4.4 18.6-8.2 18.4-8.4-.2-.2-12.2 2.8-26.8 6.7-14.5 3.9-31.2 8.3-37.1 9.9-6 1.5-10.8 2.7-10.8 2.5 0-.1.7-1.9 1.5-3.8.8-2 1.5-3.9 1.5-4.2 0-.3-3.4-.5-7.6-.5-6.2 0-7.5-.3-7.1-1.4.3-.8 1.8-4.9 3.3-9l2.7-7.6h13.5l2.6-7.1c1.4-3.8 2.6-7.4 2.6-7.9s-2.9-1-6.4-1.2l-6.4-.3 2.5-6.8 2.5-6.7h14.4l2.4-6.8c1.3-3.7 2.5-7.3 2.8-8 .3-.9-3.5-1.2-17-1.2h-17.4l-5.3 14.7z"/></svg>