<svg width="20" height="20" fill="#fff" viewBox="0 0 485.213 485.213" xmlns="http://www.w3.org/2000/svg"><path d="M471.88 407.57L360.56 296.25a214.267 214.267 0 0 1-64.331 64.321l111.32 111.32c17.772 17.768 46.587 17.768 64.321 0 17.773-17.739 17.773-46.554.001-64.321zM363.91 181.96C363.91 81.48 282.441 0 181.96 0 81.48 0 0 81.473 0 181.96s81.473 181.95 181.96 181.95c100.48 0 181.95-81.469 181.95-181.95zM181.96 318.42c-75.252 0-136.46-61.208-136.46-136.46S106.713 45.5 181.96 45.5c75.25 0 136.47 61.213 136.47 136.46s-61.218 136.46-136.47 136.46z"/><path d="M75.817 181.96h30.322c0-41.803 34.014-75.814 75.816-75.814V75.821c-58.517 0-106.14 47.621-106.14 106.14z"/></svg>