<svg version="1" xmlns="http://www.w3.org/2000/svg" width="80" height="80" viewBox="0 0 60.000000 60.000000"><path d="M12.6.7c-.3.3-.6 1.7-.6 3C12 5.6 11.5 6 9 6c-2.7 0-3 .3-3 2.9 0 2.4-.5 3-2.5 3.3-3.3.4-3.3 2.2 0 2.6 2 .3 2.5.9 2.5 3.3 0 2.6-.3 2.9-3 2.9-1.7 0-3 .4-3 1 0 .5 1.3 1 3 1 2.7 0 3 .3 3 3s-.3 3-3 3c-1.7 0-3 .4-3 1 0 .5 1.3 1 3 1 2.7 0 3 .3 3 3s-.3 3-3 3c-1.7 0-3 .4-3 1 0 .5 1.3 1 3 1 2.7 0 3 .3 3 2.9 0 2.4-.5 3-2.5 3.3-3.3.4-3.3 2.2 0 2.6 2 .3 2.5.9 2.5 3.3 0 2.5.4 2.9 2.9 2.9 2.4 0 3 .5 3.3 2.5.4 3.5 2.2 3.6 2.6.2.3-2.4.7-2.8 3-2.5 2.1.2 2.8.9 3 3.1.4 3.7 2.2 3.5 2.2-.3 0-2.7.3-3 3-3s3 .3 3 3c0 1.7.5 3 1 3 .6 0 1-1.3 1-3 0-2.7.3-3 3-3s3 .3 3 3c0 3.8 1.8 4 2.2.2.2-2.1.9-2.8 3-3 2.2-.3 2.7.1 3 2.3.4 3.3 2.2 3.3 2.6 0 .3-2 .9-2.5 3.3-2.5 2.5 0 2.9-.4 2.9-2.9s.4-3 2.8-3.3c1.5-.2 2.7-.8 2.7-1.3 0-.6-1.2-1.1-2.7-1.3-2.4-.3-2.8-.8-2.8-3.3 0-2.6.3-2.9 3-2.9 1.7 0 3-.5 3-1 0-.6-1.3-1-3-1-2.7 0-3-.3-3-3s.3-3 3-3c1.7 0 3-.5 3-1 0-.6-1.3-1-3-1-2.7 0-3-.3-3-3s.3-3 3-3c1.7 0 3-.5 3-1 0-.6-1.3-1-3-1-2.7 0-3-.3-3-2.9 0-2.4.5-3 2.5-3.3 3.5-.4 3.6-2.2.3-2.6-2.4-.3-2.8-.8-2.8-3.3S53.6 6 51.1 6s-3-.4-3.3-2.8c-.4-3.5-2.2-3.5-2.6.1-.3 2.4-.7 2.8-3 2.5-2.1-.2-2.8-.9-3-3.1C38.8-1 37-.8 37 3c0 2.7-.3 3-3 3s-3-.3-3-3c0-1.7-.4-3-1-3-.5 0-1 1.3-1 3 0 2.7-.3 3-3 3s-3-.3-3-3c0-3.8-1.8-4-2.2-.3-.2 2.2-.9 2.9-3 3.1-2.4.3-2.8 0-2.8-2.2 0-2.5-1.2-4.1-2.4-2.9zM52 30v22H8V8h44v22z"/><path d="M13.2 13.2c-1.4 1.4-1.7 31.5-.3 33.6.4.8 1.9 1.2 3.1 1 3-.4 3.9-2.8 1.1-2.8-2 0-2.1-.5-2.1-15V15h14.6c12.8 0 14.8.2 16 1.7 1.2 1.7 1.3 1.7 1.9 0 1.6-4-.8-4.7-17.4-4.7-10.9 0-16.1.4-16.9 1.2zm32.4 6.5c-.3.3-.6 6.2-.6 13V45H32.9c-9.2 0-12 .3-11.7 1.2.7 1.9 24.8 2.4 26 .6.4-.7.8-7 .8-14 0-11.6-.6-14.9-2.4-13.1z"/></svg>